<?xml version="1.0" standalone="no"?>
<!DOCTYPE svg PUBLIC "-//W3C//DTD SVG 20010904//EN"
 "http://www.w3.org/TR/2001/REC-SVG-20010904/DTD/svg10.dtd">
<svg version="1.0" xmlns="http://www.w3.org/2000/svg"
 width="50.000000pt" height="50.000000pt" viewBox="0 0 50.000000 50.000000"
 preserveAspectRatio="xMidYMid meet">

<g transform="translate(0.000000,50.000000) scale(0.100000,-0.100000)"
fill="#000000" stroke="none">
<path d="M108 480 c-8 -12 -24 -20 -38 -20 -14 0 -31 -5 -38 -12 -17 -17 -17
-399 0 -416 17 -17 419 -17 436 0 17 17 17 399 0 416 -7 7 -23 12 -36 12 -13
0 -32 10 -43 23 l-19 22 -19 -22 c-17 -21 -28 -23 -103 -23 -72 0 -85 3 -96
20 -7 11 -17 20 -22 20 -5 0 -15 -9 -22 -20z m32 -30 c0 -16 -4 -30 -10 -30
-5 0 -10 14 -10 30 0 17 5 30 10 30 6 0 10 -13 10 -30z m240 0 c0 -16 -4 -30
-10 -30 -5 0 -10 14 -10 30 0 17 5 30 10 30 6 0 10 -13 10 -30z m-269 -32 l19
-23 19 23 c17 19 29 22 101 22 72 0 84 -3 101 -22 l19 -23 19 23 c11 12 31 22
45 22 23 0 26 -4 26 -35 l0 -35 -210 0 -210 0 0 35 c0 31 3 35 26 35 14 0 34
-10 45 -22z m349 -223 l0 -155 -210 0 -210 0 0 155 0 155 210 0 210 0 0 -155z"/>
<path d="M170 240 c-6 -11 -8 -20 -6 -20 3 0 10 9 16 20 6 11 8 20 6 20 -3 0
-10 -9 -16 -20z"/>
<path d="M210 253 c19 -9 10 -39 -20 -68 -39 -38 -38 -45 8 -44 30 2 32 3 10
6 -35 5 -35 13 -3 43 26 25 30 61 7 66 -7 1 -8 0 -2 -3z"/>
<path d="M264 246 c-8 -22 -1 -49 14 -52 7 -1 8 0 2 3 -14 7 -13 50 3 56 9 4
9 6 -1 6 -7 1 -15 -5 -18 -13z"/>
<path d="M312 241 c9 -15 9 -23 -3 -37 -11 -15 -11 -16 0 -9 11 6 13 2 7 -21
-5 -21 -4 -25 4 -14 18 27 10 100 -11 100 -5 0 -4 -9 3 -19z"/>
<path d="M272 154 c10 -10 20 -16 22 -13 3 3 -5 11 -17 18 -21 13 -21 12 -5
-5z"/>
</g>
</svg>
