<?xml version="1.0" encoding="UTF-8" standalone="no"?> <svg width="64" height="64" viewBox="0 0 64 64" fill="none" xmlns="http://www.w3.org/2000/svg">
<path d="M5.49996 13.1401L32 34.4301L59.93 13.1401V49.6401L55.36 52.0001H6.49996L3.70996 48.2901V14.6401L5.49996 13.1401Z" fill="#78B9EB"/>
<path d="M56 10.5H8C6.54212 10.5026 5.14471 11.083 4.11383 12.1138C3.08295 13.1447 2.50264 14.5421 2.5 16V48C2.50264 49.4579 3.08295 50.8553 4.11383 51.8862C5.14471 52.917 6.54212 53.4974 8 53.5H56C57.4579 53.4974 58.8553 52.917 59.8862 51.8862C60.917 50.8553 61.4974 49.4579 61.5 48V16C61.4974 14.5421 60.917 13.1447 59.8862 12.1138C58.8553 11.083 57.4579 10.5026 56 10.5V10.5ZM55.79 13.5L32 32.92L8.21 13.5H55.79ZM58.5 48C58.5 48.663 58.2366 49.2989 57.7678 49.7678C57.2989 50.2366 56.663 50.5 56 50.5H8C7.33696 50.5 6.70107 50.2366 6.23223 49.7678C5.76339 49.2989 5.5 48.663 5.5 48V16C5.50404 15.7488 5.54446 15.4996 5.62 15.26L31.05 36C31.3217 36.2324 31.6675 36.3601 32.025 36.3601C32.3825 36.3601 32.7283 36.2324 33 36L58.38 15.26C58.4555 15.4996 58.496 15.7488 58.5 16V48Z" fill="#006DF0"/>
</svg>
